:SAMPLES-PER-SECOND 30
:FULLY-SPECIFIED
:DEGREES
760
root  4.98998 40.4319 1.7524 155.207 82.6517 151.377
RightUpLeg  -14.8002 -14.5031 -6.80389
RightLeg  36.7453 -8.3371 -6.8781
RightFoot  -8.25878 -0.227773 6.34989
RightToes  0.00048216 0.542163 -0.142577
Spine  9.8407 -0.14946 -3.32538
Spine1  2.76984 -0.661062 1.14629
HEad  1.58953 1.72475 -0.86688
LeftShoulder1  3.39267 -6.35241 -28.2812
LeftArm  -26.1584 24.5154 -15.4653
LeftForeArm  29.288 -19.7571 -2.26961
LeftHand  -0.25398 0.0180481 5.50724
RightShoulder  2.32491 4.26405 23.7375
RightArm  -17.7932 -23.4661 21.0573
RightForeArm  0.712847 12.9992 4.12591
RightHand  -2.7006 7.49647 -24.39
LeftUpLeg  -4.18938 9.82951 2.70664
LeftLeg  9.23734 34.1891 -3.05048
LeftFoot  -3.90299 0.164251 -2.16549
LeftToes  1.06244e-005 4.65855e-005 -8.18506e-006
761
root  4.46074 40.4993 1.27718 140.087 84.4903 136.008
RightUpLeg  -11.7363 -17.1087 -5.80487
RightLeg  37.6349 -9.48001 -8.00842
RightFoot  -9.02228 -0.168584 5.33599
RightToes  0.00048216 0.542163 -0.142577
Spine  8.89409 -0.149425 -3.56315
Spine1  1.71099 -0.583613 1.08277
HEad  2.16933 2.24445 -0.130556
LeftShoulder1  2.62155 -5.05935 -24.3307
LeftArm  -26.9589 25.2328 -14.2251
LeftForeArm  29.751 -19.5837 -2.08494
LeftHand  -0.25398 0.0180481 5.50724
RightShoulder  1.96019 3.54171 21.4991
RightArm  -18.2792 -22.1947 18.375
RightForeArm  0.655758 12.8626 3.98372
RightHand  -2.63978 7.5244 -23.8161
LeftUpLeg  -4.28491 8.58146 1.47446
LeftLeg  7.56617 37.6304 -3.99976
LeftFoot  -3.24238 0.108876 -1.25846
LeftToes  1.06244e-005 4.65855e-005 -8.18506e-006
762
root  3.93313 40.4826 0.886734 117.271 85.0773 113.161
RightUpLeg  -7.82299 -18.7074 -5.91684
RightLeg  36.2758 -8.28643 -6.75111
RightFoot  -8.83984 -0.180018 5.45187
RightToes  0.00048216 0.542163 -0.142577
Spine  8.13498 -0.0173078 -3.92777
Spine1  1.07149 -0.334833 0.719893
HEad  2.23189 2.3389 0.648675
LeftShoulder1  2.02139 -4.02097 -20.3608
LeftArm  -27.252 25.1301 -13.2115
LeftForeArm  29.6435 -19.1503 -1.85949
LeftHand  -0.25398 0.0180481 5.50724
RightShoulder  1.58155 2.68913 19.0546
RightArm  -18.7148 -20.8232 15.8993
RightForeArm  -0.608754 12.8866 3.96759
RightHand  -2.5896 7.43041 -23.547
LeftUpLeg  -4.70941 8.04798 0.0665557
LeftLeg  7.04769 40.0875 -4.50713
LeftFoot  -3.14212 0.0453994 -0.36338
LeftToes  1.06244e-005 4.65855e-005 -8.18506e-006
763
root  3.3826 40.3997 0.56411 94.1919 84.5011 90.1033
RightUpLeg  -3.34641 -19.0356 -6.61209
RightLeg  32.1937 -5.9901 -4.30496
RightFoot  -9.26412 -0.183192 6.7938
RightToes  0.00048216 0.542163 -0.142577
Spine  7.4872 0.288687 -4.13607
Spine1  0.711405 0.172731 -0.140436
HEad  1.95909 2.15932 1.3039
LeftShoulder1  1.59505 -3.29528 -16.6881
LeftArm  -27.3578 24.4456 -12.1111
LeftForeArm  28.9125 -18.6406 -1.64314
LeftHand  -0.25398 0.0180481 5.50724
RightShoulder  1.25954 1.88632 16.7076
RightArm  -18.7678 -19.3135 13.2988
RightForeArm  -1.7504 12.6745 3.99848
RightHand  -2.58082 7.36456 -23.585
LeftUpLeg  -5.47087 7.49262 -1.51958
LeftLeg  7.23997 42.9118 -4.50002
LeftFoot  -3.29042 -0.0313845 0.726769
LeftToes  1.06244e-005 4.65855e-005 -8.18506e-006
764
root  2.78803 40.313 0.293261 78.1874 83.1501 74.0571
RightUpLeg  1.18391 -18.6224 -7.47693
RightLeg  25.5454 -4.57608 -2.67418
RightFoot  -11.5869 -0.0636169 7.77096
RightToes  0.00048216 0.542163 -0.142577
Spine  7.12264 0.660008 -4.19933
Spine1  0.226022 0.770902 -1.13429
HEad  1.57671 2.16242 1.60167
LeftShoulder1  1.27827 -2.71782 -13.4941
LeftArm  -28.0995 23.6235 -10.8737
LeftForeArm  28.5768 -18.395 -1.463
LeftHand  -0.25398 0.0180481 5.50724
RightShoulder  1.0205 1.29458 14.4134
RightArm  -18.6478 -17.5486 10.6536
RightForeArm  -2.2622 12.0342 3.99849
RightHand  -2.49935 7.06586 -23.3911
LeftUpLeg  -6.4162 6.64339 -3.157
LeftLeg  7.20679 45.7533 -4.45756
LeftFoot  -3.02112 -0.117055 1.8552
LeftToes  1.06244e-005 4.65855e-005 -8.18506e-006
765
root  2.1401 40.259 0.0552298 69.0589 81.4773 64.8463
RightUpLeg  4.9608 -17.4521 -8.54604
RightLeg  17.7378 -5.22449 -1.5621
RightFoot  -14.8672 0.0951412 6.5565
RightToes  0.00048216 0.542163 -0.142577
Spine  7.23819 0.933137 -4.07965
Spine1  -0.521019 1.2621 -2.0894
HEad  1.0475 2.54457 1.51626
LeftShoulder1  1.02337 -2.11606 -10.9094
LeftArm  -29.6939 22.8237 -9.55661
LeftForeArm  28.7178 -18.5856 -1.39692
LeftHand  -0.25398 0.0180481 5.50724
RightShoulder  0.846327 0.920174 12.0557
RightArm  -19.1719 -15.6353 8.45733
RightForeArm  -2.99271 11.3351 3.90797
RightHand  -2.4194 6.76952 -23.2009
LeftUpLeg  -7.24148 5.79439 -4.66148
LeftLeg  6.17457 48.0277 -5.25409
LeftFoot  -2.35838 -0.215422 2.9226
LeftToes  1.06244e-005 4.65855e-005 -8.18506e-006
766
root  1.42415 40.2255 -0.186393 64.109 80.0928 59.6405
RightUpLeg  6.8107 -13.2257 -9.42335
RightLeg  11.4195 -9.41005 0.547827
RightFoot  -17.1863 0.0640537 3.48965
RightToes  0.00048216 0.542163 -0.142577
Spine  7.87683 0.983852 -2.94773
Spine1  -1.54028 1.6219 -3.54798
HEad  0.161469 2.99127 1.18049
LeftShoulder1  0.828854 -1.52418 -8.9897
LeftArm  -31.7005 21.8475 -8.29406
LeftForeArm  28.3564 -19.0352 -1.50235
LeftHand  -0.25398 0.0180481 5.50724
RightShoulder  0.701919 0.601516 9.79063
RightArm  -20.6545 -13.9777 6.86915
RightForeArm  -4.7873 11.1594 3.75225
RightHand  -2.52235 7.06954 -23.5876
LeftUpLeg  -8.26255 5.7255 -5.79116
LeftLeg  4.76125 49.6925 -6.60859
LeftFoot  -1.82877 -0.345737 4.28701
LeftToes  1.06244e-005 4.65855e-005 -8.18506e-006
767
root  0.635952 40.2081 -0.453694 59.7603 79.6508 54.5779
RightUpLeg  6.21273 -10.8837 -9.50574
RightLeg  8.23699 -11.291 2.55492
RightFoot  -17.9304 -0.0590292 1.04759
RightToes  0.00048216 0.542163 -0.142577
Spine  8.82526 0.867376 0.0566347
Spine1  -2.76046 1.96793 -5.71419
HEad  -1.25058 3.17402 0.591224
LeftShoulder1  0.712858 -1.14937 -7.68667
LeftArm  -34.0481 20.7316 -7.44661
LeftForeArm  27.3881 -19.6019 -1.74814
LeftHand  -0.25398 0.0180481 5.50724
RightShoulder  0.568921 0.183898 7.92292
RightArm  -22.456 -12.7764 5.42413
RightForeArm  -7.40645 11.5971 3.65856
RightHand  -2.82906 8.05328 -24.4917
LeftUpLeg  -10.4129 8.19639 -6.41334
LeftLeg  5.1273 48.5723 -6.43001
LeftFoot  -1.47048 -0.504615 5.93638
LeftToes  1.06244e-005 4.65855e-005 -8.18506e-006
768
root  -0.184684 40.2073 -0.713803 52.966 80.0128 46.705
RightUpLeg  3.88758 -10.8119 -8.52839
RightLeg  7.9036 -10.5358 3.48258
RightFoot  -17.7878 -0.0909973 0.524529
RightToes  0.00048216 0.542163 -0.142577
Spine  9.77443 0.846671 3.94644
Spine1  -3.79053 2.36136 -7.51974
HEad  -3.1457 3.25325 -0.270627
LeftShoulder1  0.672076 -1.07941 -6.94886
LeftArm  -36.8827 20.0644 -7.2594
LeftForeArm  27.0292 -20.3977 -2.12767
LeftHand  -0.25398 0.0180481 5.50724
RightShoulder  0.461832 -0.263159 6.61016
RightArm  -23.8648 -11.675 3.75395
RightForeArm  -10.1416 12.1224 3.67815
RightHand  -3.21367 9.22146 -25.5587
LeftUpLeg  -14.3251 14.954 -7.46044
LeftLeg  8.77407 39.8325 -2.93035
LeftFoot  -0.850287 -0.570832 6.28637
LeftToes  1.06244e-005 4.65855e-005 -8.18506e-006
769
root  -0.950644 40.2458 -0.903605 44.7604 80.2806 37.6808
RightUpLeg  1.37335 -10.4121 -7.06245
RightLeg  8.57785 -10.1549 3.60588
RightFoot  -17.2369 -0.078837 0.731714
RightToes  0.00048216 0.542163 -0.142577
Spine  10.6331 1.02738 6.27827
Spine1  -4.18952 2.63538 -7.60581
HEad  -5.10949 3.62049 -0.995204
LeftShoulder1  0.66871 -1.13066 -6.68624
LeftArm  -39.3268 20.2465 -7.4437
LeftForeArm  27.8794 -21.2407 -2.51559
LeftHand  -0.25398 0.0180481 5.50724
RightShoulder  0.409588 -0.487978 5.85671
RightArm  -24.7813 -10.2322 2.21372
RightForeArm  -12.3068 12.2622 3.7271
RightHand  -3.53427 10.0507 -26.5577
LeftUpLeg  -18.7833 22.7251 -9.61254
LeftLeg  12.4907 23.77 0.659888
LeftFoot  -0.0556519 -0.407337 4.13194
LeftToes  1.06244e-005 4.65855e-005 -8.18506e-006
